<?xml version="1.0" encoding="iso-8859-1"?>
<!-- Generator: Adobe Illustrator 16.0.0, SVG Export Plug-In . SVG Version: 6.00 Build 0)  -->
<!DOCTYPE svg PUBLIC "-//W3C//DTD SVG 1.1//EN" "http://www.w3.org/Graphics/SVG/1.1/DTD/svg11.dtd">
<svg version="1.1" id="Capa_1" xmlns="http://www.w3.org/2000/svg" xmlns:xlink="http://www.w3.org/1999/xlink" x="0px" y="0px"
	 width="612.001px" height="612px" viewBox="0 0 612.001 612" style="enable-background:new 0 0 612.001 612;" xml:space="preserve"
	>
<g>
	<g>
		<g>
			<path d="M38.708,327.915c-1.534-5.021,1.295-10.379,6.315-11.912c5.02-1.534,10.379,1.295,11.913,6.314l62.715,203.621H306
				h186.35l62.754-203.642c1.533-5.021,6.894-7.85,11.913-6.315c5.021,1.534,7.85,6.895,6.315,11.914l-64.627,209.678
				c-0.977,4.283-4.781,7.49-9.344,7.49H306H112.618v-0.04c-4.084,0-7.869-2.63-9.104-6.733L38.708,327.915z"/>
			<path d="M151.347,215.655c-2.929,4.363-8.846,5.538-13.229,2.61c-4.363-2.929-5.538-8.845-2.609-13.228l44.645-66.898
				c2.929-4.363,8.865-5.538,13.229-2.61c4.363,2.929,5.538,8.846,2.609,13.229L151.347,215.655z"/>
			<path d="M28.708,296.418c-5.279,0-9.563-4.283-9.563-9.563c0-5.28,4.283-9.563,9.563-9.563h554.604
				c5.279,0,9.563,4.283,9.563,9.563c0,5.28-4.283,9.563-9.563,9.563H28.708z"/>
			<path d="M9.563,258.148c-5.279,0-9.563-4.283-9.563-9.563s4.283-9.563,9.563-9.563h592.875c5.279,0,9.563,4.283,9.563,9.563
				s-4.283,9.563-9.563,9.563H9.563z"/>
			<path d="M476.512,205.056c2.929,4.363,1.753,10.3-2.609,13.229c-4.362,2.928-10.301,1.773-13.229-2.61l-44.646-66.917
				c-2.93-4.363-1.753-10.3,2.609-13.229c4.362-2.928,10.3-1.773,13.229,2.61L476.512,205.056z"/>
			<path d="M277.333,334.688h0.239h57.116c5.278,0,9.562,4.283,9.562,9.562v0.26v133.656c0,5.278-4.283,9.562-9.562,9.562h-0.239
				h-57.116c-5.279,0-9.563-4.283-9.563-9.562v-0.239V344.25C267.77,338.991,272.053,334.688,277.333,334.688L277.333,334.688z
				 M325.125,353.833h-38.23v114.771h38.23V353.833z"/>
			<path d="M392.143,334.688h0.238h76.223c5.278,0,9.562,4.283,9.562,9.562c0,1.155-0.199,2.271-0.578,3.308l-38.07,133.218
				c-1.194,4.204-5.021,6.934-9.185,6.934v0.021h-38.21c-5.279,0-9.563-4.283-9.563-9.563v-0.238V344.25
				C382.56,338.991,386.863,334.688,392.143,334.688L392.143,334.688z M455.952,353.833h-54.247v114.771h21.455L455.952,353.833z"/>
			<path d="M143.417,334.688h76.48c5.279,0,9.563,4.283,9.563,9.562v0.26v133.656c0,5.278-4.283,9.562-9.563,9.562h-0.239h-37.991
				c-4.562,0-8.407-3.229-9.343-7.551l-38.091-133.317c-1.434-5.08,1.494-10.358,6.574-11.793c0.877-0.26,1.753-0.359,2.61-0.359
				V334.688L143.417,334.688z M210.315,353.833h-54.248l32.792,114.771h21.456V353.833z"/>
			<path d="M219.978,66.938c7.929,0,15.121,3.228,20.28,8.387c5.18,5.18,8.387,12.353,8.387,20.28c0,7.929-3.208,15.121-8.387,20.3
				c-5.179,5.179-12.352,8.387-20.28,8.387c-7.929,0-15.121-3.227-20.281-8.387c-5.18-5.18-8.387-12.352-8.387-20.28
				s3.228-15.101,8.387-20.28C204.876,70.166,212.048,66.938,219.978,66.938L219.978,66.938z M226.731,88.852
				c-1.713-1.713-4.104-2.789-6.753-2.789c-2.65,0-5.041,1.076-6.754,2.789s-2.789,4.104-2.789,6.753
				c0,2.65,1.076,5.041,2.789,6.753c1.713,1.713,4.104,2.789,6.754,2.789c2.649,0,5.04-1.076,6.753-2.789s2.789-4.104,2.789-6.753
				C229.52,92.976,228.444,90.585,226.731,88.852z"/>
			<path d="M392.043,66.938c7.929,0,15.12,3.228,20.28,8.387c5.18,5.18,8.387,12.353,8.387,20.28c0,7.929-3.207,15.121-8.387,20.281
				c-5.181,5.18-12.353,8.387-20.28,8.387c-7.93,0-15.102-3.227-20.281-8.387c-5.18-5.18-8.387-12.352-8.387-20.281
				s3.228-15.101,8.387-20.28C376.922,70.166,384.113,66.938,392.043,66.938L392.043,66.938z M398.796,88.852
				c-1.713-1.713-4.104-2.789-6.753-2.789c-2.65,0-5.041,1.076-6.754,2.789s-2.789,4.104-2.789,6.753
				c0,2.65,1.076,5.041,2.789,6.753c1.713,1.713,4.104,2.789,6.754,2.789c2.649,0,5.04-1.076,6.753-2.789
				c1.714-1.713,2.789-4.104,2.789-6.753C401.585,92.976,400.51,90.585,398.796,88.852z"/>
		</g>
	</g>
</g>
<g>
</g>
<g>
</g>
<g>
</g>
<g>
</g>
<g>
</g>
<g>
</g>
<g>
</g>
<g>
</g>
<g>
</g>
<g>
</g>
<g>
</g>
<g>
</g>
<g>
</g>
<g>
</g>
<g>
</g>
</svg>
